<svg width="48" height="48" viewBox="0 0 48 48" fill="none" xmlns="http://www.w3.org/2000/svg">
<g id="calendar 1">
<path id="masks-theater" d="M16.9288 22.8218C14.6863 23.4749 13.182 25.3967 13.3332 27.453C14.0457 26.658 15.1338 25.9717 16.4519 25.5205L16.9288 22.8218ZM9.98823 25.9374L8.00512 14.7181C7.98699 14.6168 8.02262 14.5543 8.02012 14.5524C11.6301 12.5487 15.7151 11.4893 19.8332 11.4893C19.9338 11.4893 20.035 11.5 20.1363 11.5012C21.0081 10.6594 22.1194 10.0744 23.3606 9.87623C24.5412 9.68748 25.7387 9.59186 26.9344 9.54373C26.31 8.67187 25.4044 8.02937 24.3237 7.85625C22.8294 7.61812 21.3275 7.5 19.8325 7.5C15.0413 7.5 10.3139 8.71374 6.07513 11.0662C4.56452 11.905 3.75515 13.655 4.06577 15.4112L6.04888 26.6305C6.93825 31.6629 14.5694 35.5104 18.8269 35.5104C19.0513 35.5104 19.2488 35.4817 19.4525 35.4604C18.6075 34.3929 17.6438 32.9304 16.9838 31.2367C14.0082 30.4255 10.3551 28.0105 9.98823 25.9374ZM16.0851 17.3462C16.0394 17.0887 15.9457 16.8543 15.8307 16.6337C15.3151 17.1906 14.5388 17.618 13.6232 17.7787C12.7076 17.9399 11.8313 17.8037 11.1557 17.4555C11.1232 17.7018 11.1157 17.9543 11.1613 18.2118C11.4013 19.568 12.6976 20.4737 14.0576 20.2349C15.4169 19.9962 16.3251 18.7024 16.0851 17.3462ZM41.9249 15.0562C36.3637 11.97 29.9606 10.8431 23.6763 11.8468C21.9694 12.1193 20.6088 13.4881 20.2988 15.2443L18.3157 26.4636C17.3538 31.9042 24.2706 38.7304 28.21 39.4229C32.1493 40.116 40.9892 36.061 41.9511 30.6204L43.9342 19.4012C44.2448 17.6443 43.4355 15.8943 41.9249 15.0562ZM24.8475 21.1061C25.0875 19.7499 26.3837 18.8443 27.7437 19.0837C29.1037 19.323 30.0112 20.6161 29.7718 21.9724C29.7262 22.2299 29.6325 22.4643 29.5175 22.6849C29.0018 22.128 28.2256 21.7005 27.31 21.5399C26.3944 21.3786 25.5181 21.5149 24.8425 21.863C24.8094 21.6161 24.8019 21.3636 24.8475 21.1061ZM29.2518 33.5286C25.7719 32.9167 23.4069 29.8242 23.6869 26.4724C24.9744 28.0686 27.2 29.358 29.905 29.8336C32.6099 30.3092 35.1437 29.8567 36.9005 28.7961C36.0143 32.0423 32.7312 34.1404 29.2518 33.5286ZM37.3955 24.0699C36.8799 23.513 36.103 23.0855 35.1874 22.9249C34.2718 22.7636 33.3956 22.8999 32.7199 23.248C32.6874 23.0018 32.6799 22.7493 32.7256 22.4918C32.9656 21.1355 34.2618 20.2299 35.6218 20.4687C36.9812 20.708 37.8893 22.0011 37.6499 23.3574C37.6043 23.6155 37.5105 23.8499 37.3955 24.0699Z" fill="white"/>
</g>
</svg>
