<svg width="48" height="48" viewBox="0 0 48 48" fill="none" xmlns="http://www.w3.org/2000/svg">
<g id="ticket 1">
<path id="music" d="M40.7484 4.61564L15.7508 11.9977C15.2434 12.1571 14.8 12.4741 14.4851 12.9028C14.1703 13.3315 14.0003 13.8494 14 14.3813V34.8039C13.1814 34.6052 12.3424 34.5024 11.5 34.4977C7.35938 34.4977 4 36.7367 4 39.4977C4 42.2586 7.35938 44.4977 11.5 44.4977C15.6406 44.4977 19 42.2586 19 39.4977V21.2414L39 15.382V29.8047C38.1815 29.6053 37.3424 29.5023 36.5 29.4977C32.3594 29.4977 29 31.7367 29 34.4977C29 37.2586 32.3594 39.4977 36.5 39.4977C40.6406 39.4977 44 37.2594 44 34.4977V6.99768C43.9996 6.60521 43.9069 6.21834 43.7292 5.86838C43.5516 5.51842 43.294 5.2152 42.9774 4.98326C42.6608 4.75133 42.2941 4.59719 41.9068 4.53332C41.5196 4.46946 41.1228 4.49766 40.7484 4.61564Z" fill="white"/>
</g>
</svg>
