<svg width="48" height="49" viewBox="0 0 48 49" fill="none" xmlns="http://www.w3.org/2000/svg">
<g id="calendar 1">
<path id="tree" d="M38.5558 33.5708L32.3143 26.5011H34.7073C35.4112 26.5011 36.0339 26.1105 36.3308 25.4808C36.6276 24.8526 36.53 24.1323 36.0745 23.6018L29.9705 16.5009H32.2275C32.9385 16.5009 33.5791 16.0829 33.8573 15.4376C34.1323 14.8024 34.0026 14.0633 33.526 13.5563L24.911 4.37794C24.4399 3.87402 23.5609 3.87402 23.089 4.37794L14.4732 13.5563C13.9966 14.0633 13.8677 14.8024 14.142 15.4376C14.4201 16.0829 15.0615 16.5009 15.7725 16.5009H18.0295L11.9247 23.6034C11.4708 24.1331 11.3731 24.8526 11.6692 25.4816C11.9661 26.1105 12.588 26.5011 13.2927 26.5011H15.6857L9.44419 33.5708C8.97543 34.1013 8.86918 34.8279 9.16606 35.4662C9.45904 36.0951 10.1036 36.5013 10.8075 36.5013H21.4999V38.4115L19.1335 42.1929C18.7178 43.0241 19.3225 44.0023 20.2515 44.0023H27.7485C28.6775 44.0023 29.2822 43.0241 28.8665 42.1929L26.5001 38.4115V36.5013H37.1925C37.8964 36.5013 38.541 36.0951 38.8339 35.4662C39.1308 34.8279 39.0246 34.1013 38.5558 33.5708Z" fill="white"/>
</g>
</svg>
