<svg width="48" height="49" viewBox="0 0 48 49" fill="none" xmlns="http://www.w3.org/2000/svg">
<g id="ticket 1">
<path id="camera-retro" d="M7.75 7C5.67969 7 4 8.67969 4 10.75V38.25C4 40.3203 5.67969 42 7.75 42H40.25C42.3203 42 44 40.3203 44 38.25V10.75C44 8.67969 42.3203 7 40.25 7H7.75ZM7.75 9.5H16.0312C16.2891 9.5 16.5 9.71094 16.5 9.96875V11.5312C16.5 11.7891 16.2891 12 16.0312 12H6.96875C6.71094 12 6.5 11.7891 6.5 11.5312V10.75C6.5 10.0625 7.0625 9.5 7.75 9.5ZM41.0312 17H6.96875C6.71094 17 6.5 16.7891 6.5 16.5312V13.7188C6.5 13.4609 6.71094 13.25 6.96875 13.25H17.75L20.1094 9.71094C20.1953 9.57812 20.3438 9.5 20.5 9.5H40.25C40.9375 9.5 41.5 10.0625 41.5 10.75V16.5312C41.5 16.7891 41.2891 17 41.0312 17ZM24 37.625C18.8281 37.625 14.625 33.4219 14.625 28.25C14.625 23.0781 18.8281 18.875 24 18.875C29.1719 18.875 33.375 23.0781 33.375 28.25C33.375 33.4219 29.1719 37.625 24 37.625ZM24 21.375C20.2109 21.375 17.125 24.4609 17.125 28.25C17.125 32.0391 20.2109 35.125 24 35.125C27.7891 35.125 30.875 32.0391 30.875 28.25C30.875 24.4609 27.7891 21.375 24 21.375ZM20.25 29.5C19.5625 29.5 19 28.9375 19 28.25C19 25.4922 21.2422 23.25 24 23.25C24.6875 23.25 25.25 23.8125 25.25 24.5C25.25 25.1875 24.6875 25.75 24 25.75C22.625 25.75 21.5 26.875 21.5 28.25C21.5 28.9375 20.9375 29.5 20.25 29.5Z" fill="white"/>
</g>
</svg>
