<svg width="48" height="49" viewBox="0 0 48 49" fill="none" xmlns="http://www.w3.org/2000/svg">
<g id="ticket 1">
<path id="chalkboard-user" d="M17.0001 30.9999C16.8507 30.9999 16.7013 31.0218 16.5588 31.0681C15.7488 31.3312 14.8969 31.4999 14.0001 31.4999C13.1032 31.4999 12.2513 31.3312 11.4407 31.0681C11.2982 31.0218 11.1495 30.9999 11.0001 30.9999C7.12134 30.9999 3.97948 34.1549 4.0001 38.0387C4.00885 39.6799 5.35822 40.9999 7.00009 40.9999H21.0001C22.6419 40.9999 23.9913 39.6799 24.0001 38.0387C24.0207 34.1549 20.8788 30.9999 17.0001 30.9999ZM14.0001 29C17.3138 29 20.0001 26.3137 20.0001 23C20.0001 19.6862 17.3138 17 14.0001 17C10.6863 17 8.00009 19.6862 8.00009 23C8.00009 26.3137 10.6863 29 14.0001 29ZM41 9H17.0001C15.3457 9 14.0001 10.3906 14.0001 12.0994V15C15.4638 15 16.8188 15.4237 18.0001 16.1125V13H40V30.9999H36V27H28V30.9999H23.2351C24.4288 32.0431 25.305 33.4206 25.7157 34.9999H41C42.6544 34.9999 44 33.6093 44 31.9006V12.0994C44 10.3906 42.6544 9 41 9Z" fill="white"/>
</g>
</svg>
