<svg width="48" height="49" viewBox="0 0 48 49" fill="none" xmlns="http://www.w3.org/2000/svg">
<g id="location 2">
<path id="person-biking" d="M29 15C29.5933 15 30.1734 14.8241 30.6667 14.4944C31.1601 14.1648 31.5446 13.6962 31.7716 13.1481C31.9987 12.5999 32.0581 11.9967 31.9424 11.4147C31.8266 10.8328 31.5409 10.2982 31.1213 9.87868C30.7018 9.45912 30.1672 9.1734 29.5853 9.05765C29.0033 8.94189 28.4001 9.0013 27.852 9.22836C27.3038 9.45543 26.8352 9.83994 26.5056 10.3333C26.1759 10.8266 26 11.4067 26 12C26 12.7957 26.3161 13.5587 26.8787 14.1213C27.4413 14.6839 28.2044 15 29 15ZM28.75 22.5625C29.1046 22.8465 29.5457 23.0009 30 23H34C34.5304 23 35.0391 22.7893 35.4142 22.4142C35.7893 22.0391 36 21.5304 36 21C36 20.4696 35.7893 19.9609 35.4142 19.5858C35.0391 19.2107 34.5304 19 34 19H30.7013L26.25 15.4375C25.8867 15.1458 25.4328 14.9904 24.967 14.9982C24.5012 15.0059 24.0528 15.1764 23.6994 15.48L16.6994 21.48C16.4649 21.681 16.2802 21.9336 16.1597 22.218C16.0392 22.5024 15.9862 22.8108 16.0048 23.1191C16.0235 23.4274 16.1133 23.7271 16.2672 23.9949C16.4211 24.2627 16.6349 24.4912 16.8919 24.6625L22 28.07V35C22 35.5304 22.2107 36.0391 22.5858 36.4142C22.9609 36.7893 23.4696 37 24 37C24.5304 37 25.0391 36.7893 25.4142 36.4142C25.7893 36.0391 26 35.5304 26 35V27C25.9999 26.6708 25.9186 26.3467 25.7633 26.0565C25.6079 25.7662 25.3833 25.5189 25.1094 25.3363L22.5244 23.6131L26.165 20.4931L28.75 22.5625ZM36 25C34.4177 25 32.871 25.4692 31.5554 26.3482C30.2398 27.2273 29.2145 28.4767 28.609 29.9385C28.0035 31.4003 27.845 33.0089 28.1537 34.5607C28.4624 36.1126 29.2243 37.538 30.3431 38.6569C31.462 39.7757 32.8874 40.5376 34.4393 40.8463C35.9911 41.155 37.5997 40.9965 39.0615 40.391C40.5233 39.7855 41.7727 38.7602 42.6518 37.4446C43.5308 36.129 44 34.5822 44 33C44 30.8783 43.1571 28.8434 41.6569 27.3431C40.1566 25.8429 38.1217 25 36 25ZM36 37C35.2089 37 34.4355 36.7654 33.7777 36.3259C33.1199 35.8864 32.6072 35.2616 32.3045 34.5307C32.0017 33.7998 31.9225 32.9956 32.0769 32.2196C32.2312 31.4437 32.6122 30.731 33.1716 30.1716C33.731 29.6122 34.4437 29.2312 35.2196 29.0769C35.9956 28.9225 36.7998 29.0017 37.5307 29.3045C38.2616 29.6072 38.8864 30.1199 39.3259 30.7777C39.7654 31.4355 40 32.2089 40 33C40 34.0609 39.5786 35.0783 38.8284 35.8284C38.0783 36.5786 37.0609 37 36 37ZM12 25C10.4178 25 8.87103 25.4692 7.55544 26.3482C6.23985 27.2273 5.21447 28.4767 4.60897 29.9385C4.00347 31.4003 3.84504 33.0089 4.15372 34.5607C4.4624 36.1126 5.22433 37.538 6.34315 38.6569C7.46197 39.7757 8.88743 40.5376 10.4393 40.8463C11.9911 41.155 13.5997 40.9965 15.0615 40.391C16.5233 39.7855 17.7727 38.7602 18.6518 37.4446C19.5308 36.129 20 34.5822 20 33C20 30.8783 19.1571 28.8434 17.6569 27.3431C16.1566 25.8429 14.1217 25 12 25ZM12 37C11.2089 37 10.4355 36.7654 9.77772 36.3259C9.11993 35.8864 8.60724 35.2616 8.30449 34.5307C8.00173 33.7998 7.92252 32.9956 8.07686 32.2196C8.2312 31.4437 8.61217 30.731 9.17158 30.1716C9.73099 29.6122 10.4437 29.2312 11.2196 29.0769C11.9956 28.9225 12.7998 29.0017 13.5307 29.3045C14.2616 29.6072 14.8864 30.1199 15.3259 30.7777C15.7654 31.4355 16 32.2089 16 33C16 34.0609 15.5786 35.0783 14.8284 35.8284C14.0783 36.5786 13.0609 37 12 37Z" fill="white"/>
</g>
</svg>
