<svg xmlns="http://www.w3.org/2000/svg" width="48" height="49" fill="none" viewBox="0 0 48 49"><g id="ticket 1"><rect width="48" height="48" fill="#5D50C6" transform="translate(0 0.5)"/><path id="umbrella-beach" fill="#fff" d="M11.2112 16.5565L17.593 18.8802C19.7923 13.784 22.981 9.86221 26.2804 8.02411C20.2879 7.71848 14.4818 10.3341 10.7474 15.0115C10.3293 15.5365 10.5812 16.3271 11.2112 16.5565ZM19.4767 19.5665L34.3815 24.9933C36.6165 17.4071 35.5503 10.5147 31.7172 9.11972C31.2547 8.95097 30.7716 8.86972 30.2741 8.86972C26.6479 8.87035 22.2573 13.1928 19.4767 19.5665ZM36.5921 11.7816C36.9809 12.8003 37.269 13.944 37.4171 15.2309C37.7759 18.349 37.3284 21.9952 36.2328 25.667L42.6465 28.002C43.2771 28.2314 43.9783 27.7876 43.9946 27.1164C44.1396 21.1358 41.3752 15.4015 36.5921 11.7816ZM38.9996 35.9988H24.066L28.1247 24.8439L24.366 23.4752L19.8098 35.9982H4.99999C4.4475 35.9982 4 36.4457 4 36.9988V38.9994C4 39.5519 4.4475 40 4.99999 40H38.9996C39.5521 40 39.9996 39.5519 39.9996 38.9994V36.9988C39.9996 36.4463 39.5521 35.9988 38.9996 35.9988Z"/></g></svg>