<svg width="40" height="40" viewBox="0 0 40 40" fill="none" xmlns="http://www.w3.org/2000/svg">
<g id="earth-oceania-solid 1" clip-path="url(#clip0_829_743)">
<path id="Vector" d="M20 40C25.3043 40 30.3914 37.8929 34.1421 34.1421C37.8929 30.3914 40 25.3043 40 20C40 14.6957 37.8929 9.60859 34.1421 5.85786C30.3914 2.10714 25.3043 0 20 0C14.6957 0 9.60859 2.10714 5.85786 5.85786C2.10714 9.60859 0 14.6957 0 20C0 25.3043 2.10714 30.3914 5.85786 34.1421C9.60859 37.8929 14.6957 40 20 40ZM16.2969 27.9141L13.25 26.8594C12.7422 26.6875 12.1875 26.6797 11.6797 26.8359L10.4844 27.2188C9.03906 27.6797 7.47656 27.0312 6.77344 25.6953L6.51562 25.2109C5.6875 23.6406 6.33594 21.6953 7.9375 20.9375L10.6953 19.625C10.875 19.5391 11.0391 19.4062 11.1562 19.25L11.5703 18.7031C12.1328 17.9531 13.0234 17.5078 13.9609 17.5078C14.8984 17.5078 15.7891 17.9531 16.3516 18.7031L16.7109 19.1797C16.8672 19.3828 17.0938 19.5312 17.3438 19.5781C17.9531 19.7031 18.5703 19.4609 18.9375 18.9609L19.75 17.8516C19.9062 17.6328 20.1641 17.5078 20.4297 17.5078C20.7734 17.5078 21.0859 17.7188 21.2109 18.0391L22 20.0625C22.2188 20.625 22.5234 21.1562 22.8984 21.6406L24.2969 23.4219C24.75 24 25 24.7188 25 25.4531C25 26.1875 24.75 26.9062 24.2969 27.4844L23.3594 28.6875C22.7109 29.5156 21.7188 30 20.6719 30C20.0156 30 19.375 29.8125 18.8203 29.4531L16.8359 28.1719C16.6641 28.0625 16.4844 27.9766 16.2969 27.9062V27.9141ZM21.3906 11.1328L23.125 12.8672C23.9141 13.6562 23.3516 15 22.2422 15H19.9062C19.4688 15 19.0391 14.9063 18.6406 14.7344L15.2969 13.25C14.1797 12.7578 14.3672 11.1172 15.5625 10.8828L18.5703 10.2812C19.5938 10.0781 20.6562 10.3984 21.3906 11.1328ZM19.375 33.75C19.375 33.0625 19.9375 32.5 20.625 32.5H21.875C22.5625 32.5 23.125 33.0625 23.125 33.75C23.125 34.4375 22.5625 35 21.875 35H20.625C19.9375 35 19.375 34.4375 19.375 33.75ZM33.6875 23.3516L34.3125 25.2266C34.5312 25.8828 34.1797 26.5859 33.5234 26.8047C32.8672 27.0234 32.1641 26.6719 31.9453 26.0156L31.3203 24.1406C31.1016 23.4844 31.4531 22.7812 32.1094 22.5625C32.7656 22.3438 33.4688 22.6953 33.6875 23.3516ZM32.1328 29.6328L29.6328 32.1328C29.1484 32.6172 28.3516 32.6172 27.8672 32.1328C27.3828 31.6484 27.3828 30.8516 27.8672 30.3672L30.3672 27.8672C30.8516 27.3828 31.6484 27.3828 32.1328 27.8672C32.6172 28.3516 32.6172 29.1484 32.1328 29.6328Z" fill="white"/>
</g>
<defs>
<clipPath id="clip0_829_743">
<rect width="40" height="40" fill="white"/>
</clipPath>
</defs>
</svg>
