<svg width="48" height="49" viewBox="0 0 48 49" fill="none" xmlns="http://www.w3.org/2000/svg">
<g id="calendar 1">
<path id="map-location-dot" d="M24 7C19.1674 7 15.25 10.9174 15.25 15.75C15.25 19.6569 20.9688 26.7778 23.1597 29.3625C23.6035 29.8861 24.3972 29.8861 24.8403 29.3625C27.0313 26.7778 32.75 19.6569 32.75 15.75C32.75 10.9174 28.8326 7 24 7ZM24 18.6667C22.3889 18.6667 21.0833 17.3611 21.0833 15.75C21.0833 14.1389 22.3889 12.8333 24 12.8333C25.6111 12.8333 26.9167 14.1389 26.9167 15.75C26.9167 17.3611 25.6111 18.6667 24 18.6667ZM5.39722 21.9965C4.98485 22.1615 4.63134 22.4462 4.3823 22.8139C4.13326 23.1817 4.0001 23.6156 4 24.0597V41.4431C4 42.2292 4.79375 42.7667 5.52361 42.475L15.1111 38.1111V21.925C14.4972 20.8153 13.9951 19.7347 13.6354 18.7014L5.39722 21.9965ZM24 31.9771C23.0229 31.9771 22.0986 31.5479 21.4646 30.7993C20.0993 29.1882 18.6472 27.3535 17.3333 25.4715V38.1104L30.6667 42.5549V25.4722C29.3528 27.3535 27.9014 29.1889 26.5354 30.8C25.9014 31.5479 24.9771 31.9771 24 31.9771ZM42.4764 18.1917L32.8889 22.5556V42.5556L42.6028 38.6701C43.0152 38.5053 43.3688 38.2206 43.6178 37.8528C43.8669 37.4851 44 37.0511 44 36.6069V19.2236C44 18.4375 43.2063 17.9 42.4764 18.1917Z" fill="white"/>
</g>
</svg>
