<svg width="48" height="49" viewBox="0 0 48 49" fill="none" xmlns="http://www.w3.org/2000/svg">
<g id="ticket 1">
<rect width="48" height="48" transform="translate(0 0.5)" fill="#5D50C6"/>
<path id="paw" d="M24.0004 22.0004C17.7965 22.0004 9.00055 31.5909 9.00055 37.6448C9.00055 40.3713 11.0951 42.0002 14.6052 42.0002C18.4208 42.0002 20.9403 40.0408 24.0004 40.0408C27.0871 40.0408 29.6136 42.0002 33.3956 42.0002C36.9057 42.0002 39.0002 40.3713 39.0002 37.6448C39.0002 31.5909 30.2042 22.0004 24.0004 22.0004ZM12.4943 21.0152C11.6818 18.3082 9.17867 16.5551 6.90369 17.0989C4.62872 17.6426 3.44357 20.2778 4.25607 22.9848C5.06856 25.6918 7.57166 27.4449 9.84663 26.9011C12.1216 26.3574 13.3068 23.7222 12.4943 21.0152ZM19.1129 19.3918C21.5301 18.7559 22.7395 15.4903 21.8145 12.0982C20.8895 8.706 18.1801 6.47243 15.763 7.10836C13.3458 7.74429 12.1365 11.0099 13.0614 14.402C13.9864 17.7942 16.6966 20.0285 19.1129 19.3918ZM41.0963 17.0997C38.8213 16.5559 36.319 18.309 35.5057 21.016C34.6932 23.723 35.8784 26.3582 38.1534 26.9019C40.4283 27.4456 42.9307 25.6925 43.7439 22.9855C44.5564 20.2785 43.3713 17.6434 41.0963 17.0997ZM28.8878 19.3918C31.305 20.0278 34.0143 17.7942 34.9393 14.402C35.8643 11.0099 34.655 7.74507 32.2378 7.10836C29.8206 6.47165 27.1113 8.706 26.1863 12.0982C25.2613 15.4903 26.4707 18.7559 28.8878 19.3918Z" fill="white"/>
</g>
</svg>
