<svg xmlns="http://www.w3.org/2000/svg" width="48" height="49" fill="none" viewBox="0 0 48 49"><g id="ticket 1"><path id="bicycle" fill="#fff" d="M37.0358 20.0001C35.8846 19.9956 34.7837 20.2078 33.7708 20.5974L28.3089 11.7976C28.1575 11.5536 27.9463 11.3524 27.6954 11.2128C27.4445 11.0732 27.1622 11 26.8751 11H22.3751C21.7537 11 21.2501 11.5036 21.2501 12.125V13.25C21.2501 13.8714 21.7537 14.375 22.3751 14.375H25.9363L26.9837 16.0625H19.0002V14.9375C19.0002 14.3161 18.4965 13.8125 17.8751 13.8125H11.7257C10.7806 13.8125 9.98356 14.5859 10.0005 15.5307C10.0168 16.4479 10.7652 17.1875 11.6877 17.1875H15.1137L13.0453 20.5287C12.1008 20.1891 11.0833 20.0026 10.0224 20C5.08475 19.988 1.02899 24.0086 1.00016 28.9463C0.970977 33.9415 5.01169 38 10.0002 38C14.1937 38 17.7175 35.1317 18.7166 31.25H22.3751C22.6626 31.25 22.9452 31.1766 23.1963 31.0367C23.4474 30.8968 23.6586 30.6951 23.8099 30.4507L29.8541 20.6869L30.9045 22.3792C29.1147 24.0278 27.9946 26.3927 28.0001 29.0193C28.0103 33.8591 32.0711 37.9525 36.9107 37.9995C41.8752 38.0477 45.9234 34.0758 45.9989 29.1404C46.0753 24.1524 42.0245 20.0195 37.0358 20.0001ZM14.1309 25.1871C14.8148 25.9274 15.3032 26.8507 15.5119 27.875H12.467L14.1309 25.1871ZM10.0002 34.625C6.89853 34.625 4.37516 32.1016 4.37516 29C4.37516 25.8984 6.89853 23.375 10.0002 23.375C10.4128 23.375 10.8148 23.4209 11.2024 23.5057L8.00286 28.6743C7.3081 29.7964 8.11655 31.25 9.43765 31.25H15.1541C14.2843 33.2346 12.302 34.625 10.0002 34.625ZM21.4351 27.875H18.9303C18.6518 25.6421 17.5552 23.6637 15.9502 22.2482L17.6902 19.4375H26.6583L21.4351 27.875ZM36.6969 34.617C33.8115 34.4647 31.4903 32.1074 31.3794 29.2201C31.3223 27.7351 31.8457 26.3712 32.7389 25.3345L35.863 30.3678C36.1907 30.8958 36.8843 31.058 37.4122 30.7304L38.368 30.1372C38.8959 29.8095 39.0583 29.1159 38.7305 28.588L35.6039 23.5506C36.0601 23.4338 36.5292 23.3748 37.0001 23.3751C40.1018 23.3751 42.6251 25.8984 42.6251 29.0001C42.6251 32.2021 39.9355 34.7879 36.6969 34.617Z"/></g></svg>