<svg xmlns="http://www.w3.org/2000/svg" width="48" height="49" fill="none" viewBox="0 0 48 49"><g id="ticket 1"><path id="utensils" fill="#fff" d="M24.4925 6.6328C24.5522 6.98304 25.6923 13.6749 25.6923 16.2309C25.6923 20.1282 23.6207 22.9078 20.5579 24.0256L21.5192 41.7686C21.5714 42.7895 20.7591 43.6539 19.7308 43.6539H14.9615C13.9406 43.6539 13.1209 42.797 13.1731 41.7686L14.1344 24.0256C11.0642 22.9078 9 20.1208 9 16.2309C9 13.6674 10.1401 6.98304 10.1998 6.6328C10.4382 5.12006 13.5755 5.0977 13.7692 6.71477V17.2369C13.8661 17.4903 14.8945 17.4753 14.9615 17.2369C15.0659 15.3515 15.5502 6.86381 15.5577 6.67006C15.8036 5.12006 18.8887 5.12006 19.1272 6.67006C19.1421 6.87126 19.619 15.3515 19.7233 17.2369C19.7904 17.4753 20.8262 17.4903 20.9156 17.2369V6.71477C21.1094 5.10515 24.2541 5.12006 24.4925 6.6328ZM33.3752 27.9229L32.2575 41.7165C32.168 42.7597 32.9952 43.6539 34.0385 43.6539H38.2115C39.2026 43.6539 40 42.8566 40 41.8655V7.28857C40 6.30491 39.2026 5.50011 38.2115 5.50011C32.0637 5.50011 21.713 18.8018 33.3752 27.9229Z"/></g></svg>