<svg xmlns="http://www.w3.org/2000/svg" width="48" height="48" fill="none" viewBox="0 0 48 48"><g id="calendar 1"><path id="water" fill="#fff" d="M43.0414 32.7157C41.5481 32.549 40.1173 31.9864 39.0199 31.1252C38.0406 30.3542 36.6445 30.3403 35.6721 31.1252C33.0397 33.2366 28.2264 33.2366 25.5523 31.021C24.6146 30.2431 23.2602 30.3889 22.3087 31.146C19.6694 33.2366 14.8838 33.2297 12.2236 31.0279C11.286 30.25 9.91074 30.4098 8.95224 31.1668C7.87566 32.0142 6.45181 32.5629 4.94461 32.7227C4.3959 32.7782 4 33.2644 4 33.8131V36.0496C4 36.6817 4.52787 37.2165 5.15992 37.1609C7.16026 36.9873 9.05642 36.3691 10.6748 35.362C14.599 37.7652 20.1903 37.7305 24.0104 35.362C27.9347 37.7652 33.5259 37.7305 37.346 35.362C38.9643 36.3483 40.8813 36.9803 42.84 37.154C43.472 37.2095 43.9999 36.6747 43.9999 36.0427V33.8479C44.0069 33.2922 43.604 32.7782 43.0414 32.7157ZM43.0414 22.714C41.5481 22.5473 40.1173 21.9847 39.0199 21.1235C38.0406 20.3525 36.6445 20.3386 35.6721 21.1235C33.0397 23.2349 28.2264 23.2349 25.5523 21.0193C24.6146 20.2414 23.2602 20.3872 22.3087 21.1443C19.6694 23.2349 14.8838 23.228 12.2236 21.0262C11.286 20.2483 9.91074 20.4081 8.95224 21.1651C7.87566 22.0125 6.45181 22.5612 4.94461 22.721C4.3959 22.7765 4 23.2627 4 23.8114V26.0479C4 26.68 4.52787 27.2148 5.15992 27.1592C7.16026 26.9856 9.05642 26.3674 10.6748 25.3603C14.599 27.7635 20.1903 27.7288 24.0104 25.3603C27.9347 27.7635 33.5259 27.7288 37.346 25.3603C38.9643 26.3466 40.8813 26.9786 42.84 27.1523C43.472 27.2078 43.9999 26.673 43.9999 26.041V23.8462C44.0069 23.2905 43.604 22.7765 43.0414 22.714ZM43.0414 12.7123C41.5481 12.5387 40.1173 11.983 39.0199 11.1217C38.0406 10.3508 36.6445 10.3369 35.6721 11.1217C33.0397 13.2332 28.2264 13.2332 25.5523 11.0176C24.6146 10.2397 23.2602 10.3855 22.3087 11.1426C19.6694 13.2332 14.8838 13.2263 12.2236 11.0245C11.286 10.2466 9.91074 10.4063 8.95224 11.1634C7.87566 12.0108 6.45181 12.5595 4.94461 12.7192C4.3959 12.7748 4 13.261 4 13.8097V16.0462C4 16.6783 4.52787 17.2131 5.15992 17.1575C7.16026 16.9839 9.05642 16.3657 10.6748 15.3586C14.599 17.7618 20.1903 17.727 24.0104 15.3586C27.9347 17.7618 33.5259 17.727 37.346 15.3586C38.9643 16.3449 40.8813 16.9769 42.84 17.1506C43.472 17.2061 43.9999 16.6713 43.9999 16.0393V13.8444C44.0069 13.2888 43.604 12.7748 43.0414 12.7123Z"/></g></svg>