<svg width="48" height="49" viewBox="0 0 48 49" fill="none" xmlns="http://www.w3.org/2000/svg">
<g id="location 2">
<path id="mountain" d="M43.6823 37.9185L25.6825 9.91874C25.3144 9.34625 24.6806 9 24 9C23.3194 9 22.6856 9.34625 22.3175 9.91874L4.31769 37.9185C4.12345 38.2206 4.01415 38.5695 4.00128 38.9284C3.98842 39.2874 4.07245 39.6432 4.24457 39.9584C4.41676 40.2736 4.67065 40.5366 4.97956 40.7199C5.28847 40.9031 5.64102 40.9997 6.00018 40.9997H41.9998C42.7317 40.9997 43.4048 40.6003 43.7554 39.9578C43.9276 39.6427 44.0116 39.287 43.9987 38.9281C43.9858 38.5693 43.8766 38.2205 43.6823 37.9185ZM24 14.6987L29.3368 22.9999H24L20 26.9998L17.6213 24.6211L24 14.6987Z" fill="white"/>
</g>
</svg>
