<svg width="48" height="49" viewBox="0 0 48 49" fill="none" xmlns="http://www.w3.org/2000/svg">
<g id="ticket 1">
<rect width="48" height="48" transform="translate(0 0.5)" fill="#5D50C6"/>
<path id="palette" d="M19.9604 4.39337C12.1946 5.90903 5.93659 12.1514 4.40531 19.8937C1.51461 34.5035 14.6946 45.3943 24.6245 43.8552C27.8434 43.3552 29.4215 39.5895 27.9449 36.691C26.1402 33.1441 28.7184 29.0033 32.7029 29.0033H38.9296C41.7265 29.0033 43.9922 26.6908 44 23.9016C43.9609 11.5889 32.7575 1.90113 19.9604 4.39337ZM11.4992 29.0033C10.1164 29.0033 8.99917 27.8861 8.99917 26.5033C8.99917 25.1204 10.1164 24.0032 11.4992 24.0032C12.8821 24.0032 13.9993 25.1204 13.9993 26.5033C13.9993 27.8861 12.8821 29.0033 11.4992 29.0033ZM13.9993 19.0031C12.6164 19.0031 11.4992 17.8859 11.4992 16.503C11.4992 15.1202 12.6164 14.003 13.9993 14.003C15.3821 14.003 16.4993 15.1202 16.4993 16.503C16.4993 17.8859 15.3821 19.0031 13.9993 19.0031ZM23.9995 14.003C22.6167 14.003 21.4995 12.8858 21.4995 11.5029C21.4995 10.1201 22.6167 9.00286 23.9995 9.00286C25.3824 9.00286 26.4996 10.1201 26.4996 11.5029C26.4996 12.8858 25.3824 14.003 23.9995 14.003ZM33.9998 19.0031C32.6169 19.0031 31.4997 17.8859 31.4997 16.503C31.4997 15.1202 32.6169 14.003 33.9998 14.003C35.3826 14.003 36.4998 15.1202 36.4998 16.503C36.4998 17.8859 35.3826 19.0031 33.9998 19.0031Z" fill="white"/>
</g>
</svg>
