<svg width="48" height="48" viewBox="0 0 48 48" fill="none" xmlns="http://www.w3.org/2000/svg">
<g id="location 2">
<path id="monument" d="M37.75 39.4998H10.25C9.55937 39.4998 9 40.0592 9 40.7498V43.2498C9 43.9404 9.55937 44.4998 10.25 44.4998H37.75C38.4406 44.4998 39 43.9404 39 43.2498V40.7498C39 40.0592 38.4406 39.4998 37.75 39.4998ZM31.5891 12.3701C31.5319 11.796 31.2776 11.2593 30.8695 10.8514L24.8836 4.86621C24.3953 4.37793 23.6039 4.37793 23.1156 4.86621L17.1313 10.8514C16.7232 11.2593 16.4689 11.796 16.4117 12.3701L14 36.9998H34L31.5891 12.3701ZM27.75 28.4998C27.75 28.9998 27.25 29.4998 26.75 29.4998H21.25C20.75 29.4998 20.25 28.9998 20.25 28.4998V25.4998C20.25 24.9998 20.75 24.4998 21.25 24.4998H26.75C27.25 24.4998 27.75 24.9998 27.75 25.4998V28.4998Z" fill="white"/>
</g>
</svg>
